HIERARCHY
ROOT joint_Root
{
	OFFSET 0.0 0.0 0.0
	CHANNELS 6 Xposition Yposition Zposition Zrotation Xrotation Yrotation 
	JOINT Hips
	{
		OFFSET -17.1583 93.1646 452.98
		CHANNELS 6 Xposition Yposition Zposition Zrotation Xrotation Yrotation 
		JOINT Spine
		{
			OFFSET 15.7357 0.0 0.0
			CHANNELS 6 Xposition Yposition Zposition Zrotation Xrotation Yrotation 
			JOINT Chest
			{
				OFFSET 8.98455 -0.406207 0.0
				CHANNELS 6 Xposition Yposition Zposition Zrotation Xrotation Yrotation 
				JOINT Neck
				{
					OFFSET 16.3773 0.0 0.0
					CHANNELS 6 Xposition Yposition Zposition Zrotation Xrotation Yrotation 
					JOINT Head
					{
						OFFSET 6.45672 0.0 0.0
						CHANNELS 6 Xposition Yposition Zposition Zrotation Xrotation Yrotation 
						End Site
						{
							OFFSET 0.0 0.0 0.0
						}
					}
				}
				JOINT Shoulder_L
				{
					OFFSET 12.9942 -0.242716 4.98039
					CHANNELS 6 Xposition Yposition Zposition Zrotation Xrotation Yrotation 
					JOINT UpperArm_L
					{
						OFFSET 5.34809 0.0 0.0
						CHANNELS 6 Xposition Yposition Zposition Zrotation Xrotation Yrotation 
						JOINT LowerArm_L
						{
							OFFSET 24.3286 1.87007e-05 0.0
							CHANNELS 6 Xposition Yposition Zposition Zrotation Xrotation Yrotation 
							JOINT Hand_L
							{
								OFFSET 22.2916 0.0 0.0
								CHANNELS 6 Xposition Yposition Zposition Zrotation Xrotation Yrotation 
								End Site
								{
									OFFSET 0.0 0.0 0.0
								}
							}
						}
					}
				}
				JOINT Shoulder_R
				{
					OFFSET 12.9945 -0.242716 -4.98039
					CHANNELS 6 Xposition Yposition Zposition Zrotation Xrotation Yrotation 
					JOINT UpperArm_R
					{
						OFFSET -5.34813 0.0 0.0
						CHANNELS 6 Xposition Yposition Zposition Zrotation Xrotation Yrotation 
						JOINT LowerArm_R
						{
							OFFSET -24.3289 0.000322201 0.0
							CHANNELS 6 Xposition Yposition Zposition Zrotation Xrotation Yrotation 
							JOINT Hand_R
							{
								OFFSET -22.2915 -0.000108084 0.0
								CHANNELS 6 Xposition Yposition Zposition Zrotation Xrotation Yrotation 
								End Site
								{
									OFFSET 0.0 0.0 0.0
								}
							}
						}
					}
				}
			}
		}
		JOINT UpperLeg_L
		{
			OFFSET -2.19248 -6.46944 0.0
			CHANNELS 6 Xposition Yposition Zposition Zrotation Xrotation Yrotation 
			JOINT LowerLeg_L
			{
				OFFSET 39.0811 0.0 -1.23785e-05
				CHANNELS 6 Xposition Yposition Zposition Zrotation Xrotation Yrotation 
				JOINT Foot_L
				{
					OFFSET 40.9854 0.0 -1.26872e-05
					CHANNELS 6 Xposition Yposition Zposition Zrotation Xrotation Yrotation 
					JOINT Toes_L
					{
						OFFSET 11.7543 0.0 0.0
						CHANNELS 6 Xposition Yposition Zposition Zrotation Xrotation Yrotation 
						End Site
						{
							OFFSET 0.0 0.0 0.0
						}
					}
				}
			}
		}
		JOINT UpperLeg_R
		{
			OFFSET -2.19251 6.46944 0.0
			CHANNELS 6 Xposition Yposition Zposition Zrotation Xrotation Yrotation 
			JOINT LowerLeg_R
			{
				OFFSET -39.0811 -0.00228153 -0.0401928
				CHANNELS 6 Xposition Yposition Zposition Zrotation Xrotation Yrotation 
				JOINT Foot_R
				{
					OFFSET -40.9854 0.0 0.0
					CHANNELS 6 Xposition Yposition Zposition Zrotation Xrotation Yrotation 
					JOINT Toes_R
					{
						OFFSET -11.7543 0.0 0.0
						CHANNELS 6 Xposition Yposition Zposition Zrotation Xrotation Yrotation 
						End Site
						{
							OFFSET 0.0 0.0 0.0
						}
					}
				}
			}
		}
	}
}
MOTION
Frames:	6
Frame Time:	0.0333333
0.000000 0.000000 0.000000 0.000000 0.000000 -0.000000 0.093213 87.537300 27.210200 -89.999600 5.001210 164.962000 15.735700 0.000005 -0.000001 110.988000 85.312100 -110.666000 8.984550 -0.406207 -0.000000 0.980598 3.337720 0.615208 16.377300 -0.000001 -0.000001 -7.694260 2.385050 -1.325250 6.456720 -0.000001 -0.000000 -4.594840 1.521130 -3.286540 12.994200 -0.242716 4.980390 -92.966500 8.220110 -70.076800 5.348090 -0.000007 -0.000001 -55.045300 -11.542500 18.548000 24.328600 0.000019 0.000005 0.238103 37.541000 -0.387553 22.291600 -0.000001 0.000005 1.191990 4.691220 13.253800 12.994500 -0.242716 -4.980390 89.448700 2.130910 -75.498200 -5.348130 -0.000001 -0.000004 -64.371600 17.240300 2.254730 -24.328900 0.000322 -0.000009 -8.505160 -6.739640 -51.845200 -22.291500 -0.000108 -0.000004 15.082700 5.598740 -11.224700 -2.192480 -6.469440 -0.000000 178.263000 -2.714780 -54.776900 39.081100 -0.000007 -0.000012 0.105254 0.020543 101.038000 40.985400 -0.000006 -0.000013 -2.371270 -4.006520 -59.956400 11.754300 -0.000000 0.000003 0.002294 0.060435 -14.125500 -2.192510 6.469440 -0.000001 179.542000 5.042340 170.573000 -39.081100 -0.002282 -0.040193 -0.019808 0.030928 36.749900 -40.985400 0.000008 0.000006 -8.125000 5.129380 -74.370000 -11.754300 -0.000006 -0.000006 -0.027700 -0.206723 -25.036700
0.000000 0.000000 0.000000 0.000000 0.000000 -0.000000 -0.621719 90.528500 16.636900 -93.227500 6.325350 161.585000 15.735700 0.000005 -0.000001 132.327000 86.096900 -133.787000 8.984550 -0.406207 -0.000000 -1.927390 5.378450 -2.830550 16.377300 -0.000001 -0.000001 -7.692090 1.393500 -0.874107 6.456720 -0.000001 -0.000000 -3.230760 -0.475818 -2.005830 12.994200 -0.242716 4.980390 -91.999400 5.534700 -70.100900 5.348090 -0.000007 -0.000001 -50.538000 -13.674600 23.616100 24.328600 0.000019 0.000005 -0.000122 35.244100 -0.000000 22.291600 -0.000001 0.000005 4.625120 4.054750 23.360300 12.994500 -0.242716 -4.980390 89.862800 0.570136 -76.479400 -5.348130 -0.000001 -0.000004 -67.430200 16.121500 1.479320 -24.328900 0.000322 -0.000009 -11.463700 -5.786230 -63.558900 -22.291500 -0.000108 -0.000004 13.249700 5.646670 -14.787800 -2.192480 -6.469440 -0.000000 175.321000 0.165965 -59.502100 39.081100 -0.000007 -0.000012 0.117423 -0.008218 85.992300 40.985400 -0.000006 -0.000013 -3.474970 -4.648350 -66.188000 11.754300 -0.000000 0.000003 0.002236 0.057152 -14.258600 -2.192510 6.469440 -0.000001 174.376000 7.789060 176.685000 -39.081100 -0.002282 -0.040193 0.025013 -0.048600 24.059700 -40.985400 0.000008 0.000006 -6.361810 6.348700 -53.743600 -11.754300 -0.000006 -0.000006 -0.092898 -0.426584 -34.343800
0.000000 0.000000 0.000000 0.000000 0.000000 -0.000000 -0.473598 92.716000 6.158120 -92.668900 5.460230 159.845000 15.735700 0.000005 -0.000001 147.193000 86.008900 -148.904000 8.984550 -0.406207 -0.000000 -3.347590 6.871500 -3.224900 16.377300 -0.000001 -0.000001 -8.503670 0.844286 -0.946468 6.456720 -0.000001 -0.000000 -2.286660 -2.817370 -0.949654 12.994200 -0.242716 4.980390 -91.560600 4.217090 -69.670400 5.348090 -0.000007 -0.000001 -45.156000 -15.880600 25.870600 24.328600 0.000019 0.000005 0.135848 31.767200 -0.258730 22.291600 -0.000001 0.000005 13.586300 3.582330 29.824500 12.994500 -0.242716 -4.980390 89.871100 0.578327 -77.431800 -5.348130 -0.000001 -0.000004 -68.177200 14.350000 0.866579 -24.328900 0.000322 -0.000009 -12.562200 -4.014040 -72.555900 -22.291500 -0.000108 -0.000004 9.646980 5.644760 -14.515800 -2.192480 -6.469440 -0.000000 177.962000 2.096560 -59.780700 39.081100 -0.000007 -0.000012 0.107801 -0.044144 67.728600 40.985400 -0.000006 -0.000013 -4.197260 -2.275780 -70.421100 11.754300 -0.000000 0.000003 0.002329 0.062671 -14.034800 -2.192510 6.469440 -0.000001 174.568000 8.725050 -178.027000 -39.081100 -0.002282 -0.040193 0.046537 -0.157415 15.348700 -40.985400 0.000008 0.000006 -5.172080 4.951960 -33.609800 -11.754300 -0.000006 -0.000006 -0.008695 -0.093611 -20.385700
0.000000 0.000000 0.000000 0.000000 0.000000 -0.000000 0.239667 93.440600 -4.659600 -89.718700 3.052310 161.689000 15.735700 0.000005 -0.000001 143.299000 85.267900 -143.962000 8.984550 -0.406207 -0.000000 -2.071830 7.642810 -1.188480 16.377300 -0.000001 -0.000001 -9.912750 0.461171 -1.282890 6.456720 -0.000001 -0.000000 -2.316190 -4.460790 -1.091750 12.994200 -0.242716 4.980390 -91.564400 4.191320 -69.510400 5.348090 -0.000007 -0.000001 -42.147700 -16.771000 25.320500 24.328600 0.000019 0.000005 0.171302 23.378300 -0.431547 22.291600 -0.000001 0.000005 28.014600 3.519660 30.713300 12.994500 -0.242716 -4.980390 89.816300 0.856381 -77.895100 -5.348130 -0.000001 -0.000004 -67.269100 13.947200 -0.154941 -24.328900 0.000322 -0.000009 -13.294200 -3.025590 -77.406800 -22.291500 -0.000108 -0.000004 9.799920 5.662800 -16.303800 -2.192480 -6.469440 -0.000000 -177.469000 2.500270 -54.028200 39.081100 -0.000007 -0.000012 0.036025 -0.032258 48.154700 40.985400 -0.000006 -0.000013 -5.519600 1.708500 -74.117500 11.754300 -0.000000 0.000003 0.002273 0.059219 -14.174800 -2.192510 6.469440 -0.000001 178.106000 8.640500 -173.345000 -39.081100 -0.002282 -0.040193 0.077414 -0.246801 16.709300 -40.985400 0.000008 0.000006 -4.161800 -0.762638 -20.978700 -11.754300 -0.000006 -0.000006 -0.000869 0.181203 -9.222980
0.000000 0.000000 0.000000 0.000000 0.000000 -0.000000 0.473858 92.867400 -15.479200 -88.379300 2.885910 162.993000 15.735700 0.000005 -0.000001 141.524000 84.605400 -141.762000 8.984550 -0.406207 -0.000000 -1.035880 8.463080 -0.400180 16.377300 -0.000001 -0.000001 -10.730300 0.200535 -0.969223 6.456720 -0.000001 -0.000000 -2.590150 -4.662490 -1.597170 12.994200 -0.242716 4.980390 -91.337400 3.728670 -70.253600 5.348090 -0.000007 -0.000001 -43.230700 -17.929000 23.602900 24.328600 0.000019 0.000005 0.111011 20.743500 -0.313424 22.291600 -0.000001 0.000005 40.414600 3.563350 30.127500 12.994500 -0.242716 -4.980390 89.987400 0.063509 -78.894400 -5.348130 -0.000001 -0.000004 -68.181300 13.538900 -0.651759 -24.328900 0.000322 -0.000009 -10.084200 -2.610870 -75.619800 -22.291500 -0.000108 -0.000004 14.419800 5.676890 -18.575700 -2.192480 -6.469440 -0.000000 -176.416000 1.257720 -46.894100 39.081100 -0.000007 -0.000012 -0.016067 0.028523 29.394000 40.985400 -0.000006 -0.000013 -6.401780 6.194230 -77.065500 11.754300 -0.000000 0.000003 0.002309 0.061348 -14.088500 -2.192510 6.469440 -0.000001 179.206000 7.255590 -173.745000 -39.081100 -0.002282 -0.040193 0.150009 -0.256108 29.805600 -40.985400 0.000008 0.000006 -6.575380 -6.003840 -24.968300 -11.754300 -0.000006 -0.000006 -0.000648 0.177941 -9.355510
0.000000 0.000000 0.000000 0.000000 0.000000 -0.000000 0.584078 91.240600 -26.898100 -88.263400 2.213360 165.308000 15.735700 0.000005 -0.000001 132.945000 84.106700 -133.107000 8.984550 -0.406207 -0.000000 0.885325 8.036830 -0.384975 16.377300 -0.000001 -0.000001 -11.680400 -0.047661 -0.729622 6.456720 -0.000001 -0.000000 -2.523030 -4.255010 -0.994431 12.994200 -0.242716 4.980390 -91.009200 3.008450 -71.447100 5.348090 -0.000007 -0.000001 -47.094900 -19.282400 19.417700 24.328600 0.000019 0.000005 0.025209 22.247200 -0.066422 22.291600 -0.000001 0.000005 43.070500 3.425780 31.894700 12.994500 -0.242716 -4.980390 90.086400 -0.451389 -79.158300 -5.348130 -0.000001 -0.000004 -70.227000 13.185500 0.116340 -24.328900 0.000322 -0.000009 -7.745820 -2.980440 -69.075000 -22.291500 -0.000108 -0.000004 16.673200 5.676780 -18.650600 -2.192480 -6.469440 -0.000000 -177.102000 0.438354 -40.525200 39.081100 -0.000007 -0.000012 -0.037003 0.093576 21.575300 40.985400 -0.000006 -0.000013 -9.508980 10.623600 -77.279700 11.754300 -0.000000 0.000003 0.002344 0.063671 -13.994300 -2.192510 6.469440 -0.000001 179.845000 6.285110 -174.064000 -39.081100 -0.002282 -0.040193 0.271002 -0.286037 43.107100 -40.985400 0.000008 0.000006 -5.399130 -6.990740 -25.706600 -11.754300 -0.000006 -0.000006 -0.000786 0.179986 -9.272420
